<svg width="385.1387451171875px" height="122.02138671875px" xmlns="http://www.w3.org/2000/svg" viewBox="57.430627441406244 13.989306640625003 385.1387451171875 122.02138671875" style="background: none;" preserveAspectRatio="xMidYMid"><defs><linearGradient id="editing-rainbow-gradient" x1="0" x2="1" y1="0.5" y2="0.5" gradientUnits="objectBoundingBox"><stop offset="0.00" stop-color="#f00"></stop><stop offset="0.17" stop-color="#f90"></stop><stop offset="0.34" stop-color="#ff4"></stop><stop offset="0.51" stop-color="#9f0"></stop><stop offset="0.68" stop-color="#09f"></stop><stop offset="0.85" stop-color="#00f"></stop><stop offset="1.00" stop-color="#9900ff"></stop></linearGradient><filter id="editing-rainbow" x="-100%" y="-100%" width="300%" height="300%"><feMorphology operator="dilate" radius="1,2" in="SourceGraphic" result="dilate"></feMorphology><feColorMatrix in="dilate" result="color" type="matrix" values="0.7 0 0 0 0  0 0.7 0 0 0  0 0 0.7 0 0  0 0 0 1 0"></feColorMatrix><feOffset dy="2" result="offset"></feOffset><feGaussianBlur stdDeviation="3"></feGaussianBlur><feOffset dy="3"></feOffset><feColorMatrix result="blur" type="matrix" values="0.7 0 0 0 0  0 0.7 0 0 0  0 0 0.7 0 0  0 0 0 1 0"></feColorMatrix><feMerge><feMergeNode in="blur"></feMergeNode><feMergeNode in="offset"></feMergeNode><feMergeNode in="SourceGraphic"></feMergeNode></feMerge></filter></defs><g filter="url(#editing-rainbow)"><g transform="translate(118.85906791687012, 97.42218780517578)"><path d="M29.18 1.28L29.18 1.28L29.18 1.28Q20.99 1.28 20.22-10.37L20.22-10.37L9.22-10.37L9.22-10.37Q7.94-7.42 7.04-4.86L7.04-4.86L5.38 0L-3.58 0L16.58-42.24L30.34-42.24L33.02-11.14L33.02-11.14Q33.66-4.42 36.22-2.43L36.22-2.43L36.22-2.43Q34.37 1.28 29.18 1.28ZM14.72-23.17L11.20-15.04L20.03-15.04L19.26-31.49L19.26-33.22L14.72-23.17ZM64.96-42.69L64.96-42.69L64.96-42.69Q80.64-42.69 80.64-31.62L80.64-31.62L80.64-31.62Q80.64-25.54 76.74-21.89L76.74-21.89L76.74-21.89Q72.90-18.24 66.18-18.24L66.18-18.24L66.18-18.24Q63.04-18.24 60.61-20.03L60.61-20.03L60.61-20.03Q59.46-20.80 58.69-21.82L58.69-21.82L58.69-21.82Q63.36-21.82 65.82-24.67L65.82-24.67L65.82-24.67Q68.29-27.52 68.29-33.09L68.29-33.09L68.29-33.09Q68.29-38.66 62.78-38.66L62.78-38.66L61.25-38.66L61.25-38.66Q60.86-38.66 60.54-38.59L60.54-38.59L53.18 0L39.30 0L47.17-41.92L47.17-41.92Q54.02-42.56 57.98-42.62L57.98-42.62L57.98-42.62Q61.95-42.69 64.96-42.69ZM94.08 0L80.38 0L88.19-42.05L88.19-42.05Q94.53-42.75 103.78-42.75L103.78-42.75L103.78-42.75Q113.02-42.75 117.31-40.06L117.31-40.06L117.31-40.06Q121.60-37.38 121.60-31.97L121.60-31.97L121.60-31.97Q121.60-26.56 118.82-23.17L118.82-23.17L118.82-23.17Q116.03-19.78 111.23-18.69L111.23-18.69L111.23-18.69Q112.32-13.38 114.82-9.09L114.82-9.09L114.82-9.09Q117.12-5.06 119.81-3.78L119.81-3.78L119.81-3.78Q118.85-1.09 116.90 0.10L116.90 0.10L116.90 0.10Q114.94 1.28 112.16 1.28L112.16 1.28L112.16 1.28Q109.38 1.28 107.20-0.35L107.20-0.35L107.20-0.35Q105.02-1.98 103.30-4.99L103.30-4.99L103.30-4.99Q99.65-11.52 99.26-21.82L99.26-21.82L99.71-21.82L99.71-21.82Q104.45-21.95 106.82-24.42L106.82-24.42L106.82-24.42Q109.18-26.88 109.18-32.06L109.18-32.06L109.18-32.06Q109.18-38.53 103.74-38.78L103.74-38.78L102.34-38.78L102.34-38.78Q101.76-38.78 101.44-38.72L101.44-38.72L94.08 0ZM125.50-15.62L125.50-15.62L125.50-15.62Q125.50-27.71 131.78-35.33L131.78-35.33L131.78-35.33Q138.43-43.58 150.02-43.58L150.02-43.58L150.02-43.58Q158.40-43.58 162.62-39.52L162.62-39.52L162.62-39.52Q166.85-35.46 166.85-26.88L166.85-26.88L166.85-26.88Q166.85-13.82 160.19-6.21L160.19-6.21L160.19-6.21Q153.60 1.28 142.53 1.28L142.53 1.28L142.53 1.28Q133.89 1.28 129.70-3.04L129.70-3.04L129.70-3.04Q125.50-7.36 125.50-15.62ZM142.34-28.86L142.34-28.86L142.34-28.86Q139.46-17.34 139.46-8.26L139.46-8.26L139.46-8.26Q139.46-6.08 140.19-4.67L140.19-4.67L140.19-4.67Q140.93-3.26 142.88-3.26L142.88-3.26L142.88-3.26Q144.83-3.26 146.05-4.19L146.05-4.19L146.05-4.19Q147.26-5.12 148.22-7.23L148.22-7.23L148.22-7.23Q149.76-10.69 151.20-18.02L151.20-18.02L151.20-18.02Q152.64-25.34 152.77-28.38L152.77-28.38L152.77-28.38Q152.90-31.42 152.90-33.73L152.90-33.73L152.90-33.73Q152.90-36.03 152.19-37.50L152.19-37.50L152.19-37.50Q151.49-38.98 149.60-38.98L149.60-38.98L149.60-38.98Q147.71-38.98 146.43-37.82L146.43-37.82L146.43-37.82Q144.06-35.65 142.34-28.86ZM175.42 0L168.06 0L179.65-42.24L193.02-42.24L195.97-18.11L207.87-42.24L219.07-42.24L220.22-10.62L220.22-10.62Q220.48-4.35 223.55-2.43L223.55-2.43L223.55-2.43Q222.85-1.15 220.80 0.06L220.80 0.06L220.80 0.06Q218.75 1.28 216.03 1.28L216.03 1.28L216.03 1.28Q213.31 1.28 211.71 0.51L211.71 0.51L211.71 0.51Q210.11-0.26 209.22-1.54L209.22-1.54L209.22-1.54Q207.62-3.84 207.62-8.26L207.62-8.26L207.62-28.03L195.01 0L187.07 0L182.59-28.74L175.42 0ZM254.40 1.28L254.40 1.28L254.40 1.28Q246.21 1.28 245.44-10.37L245.44-10.37L234.43-10.37L234.43-10.37Q233.15-7.42 232.26-4.86L232.26-4.86L230.59 0L221.63 0L241.79-42.24L255.55-42.24L258.24-11.14L258.24-11.14Q258.88-4.42 261.44-2.43L261.44-2.43L261.44-2.43Q259.58 1.28 254.40 1.28ZM239.94-23.17L236.42-15.04L245.25-15.04L244.48-31.49L244.48-33.22L239.94-23.17Z" fill="url(#editing-rainbow-gradient)"></path></g></g><style>text {
  font-size: 64px;
  font-family: Arial Black;
  dominant-baseline: central;
  text-anchor: middle;
}</style></svg>